<?xml version="1.0" standalone="no"?>
<!DOCTYPE svg PUBLIC "-//W3C//DTD SVG 1.1//EN" "http://www.w3.org/Graphics/SVG/1.1/DTD/svg11.dtd" >
<svg>
<metadata>
Created by FontForge 20120731 at Thu May 23 04:48:06 2019
 By ffonts
Copyright \(c\) 2019 by David Kerkhoff. All rights reserved.
</metadata>
<defs>
<font id="KuronekoKapsDEMO-Regular" horiz-adv-x="582" >
  <font-face 
    font-family="Kuroneko Kaps DEMO"
    font-weight="400"
    font-stretch="normal"
    units-per-em="1000"
    panose-1="0 0 0 0 0 0 0 0 0 0"
    ascent="800"
    descent="-200"
    x-height="669"
    cap-height="684"
    bbox="-23.2013 -103.062 777 918"
    underline-thickness="0"
    underline-position="0"
    unicode-range="U+000D-20AC"
  />
<missing-glyph horiz-adv-x="592" 
d="M112 128v12c1 8 4 34 5 39c2 12 14 54 16 61c74 209 79 226 81 233c1 3 1 5 1 9c0 2 0 3 -2 3h-2c-95 16 -125 35 -142 131v1c6 6 9 10 9 17c0 20 -17 15 -20 27c-2 10 -8 33 -8 34v5l66 -58c2 -2 2 -3 4 -3h2c36 20 73 28 113 28c38 0 79 -8 111 -31l3 2l67 58v-5
c-36 -195 -116 -202 -162 -207c-3 0 -6 -1 -8 -1v-2v-1c1 -4 3 -14 3 -15l102 -240c17 -40 24 -83 23 -127c19 16 24 53 24 75c0 24 -2 50 -15 71l-53 99c-12 21 -16 47 -16 71c0 74 66 114 133 121c52 0 95 -32 95 -86c0 -42 -32 -67 -74 -67c-29 0 -64 16 -64 49
c0 29 28 51 57 51c9 0 17 -9 17 -19c0 -22 -35 -15 -35 -31c0 -12 17 -12 25 -12c13 0 31 3 35 18v10c0 32 -25 49 -55 49c-52 0 -96 -29 -96 -83c0 -50 31 -89 54 -131c19 -34 30 -70 30 -107c0 -23 -3 -45 -12 -66c-21 -47 -68 -91 -120 -106c-4 -1 -15 -4 -16 -4h-53
c-12 0 -29 7 -39 12c-55 26 -84 54 -84 116zM156 566c1 -4 14 -3 17 -3s25 2 25 5c0 7 -20 28 -28 28h-1c-1 -14 -4 -21 -13 -30zM257 568c0 -3 21 -5 25 -5h10c1 1 5 2 5 2v1c-8 10 -12 18 -13 30c-8 -3 -27 -19 -27 -28zM151 569c-1 0 -1 -3 0 -3c2 0 2 3 0 3zM290 599
c10 -9 12 -17 13 -32c9 3 30 21 30 30c0 3 -21 5 -25 5c-6 0 -14 0 -18 -3zM122 597c0 -6 20 -28 27 -28h1c1 13 5 21 13 30v1s-5 1 -6 2h-10c-4 0 -25 -2 -25 -5z" />
    <glyph glyph-name=".notdef" horiz-adv-x="592" 
d="M112 128v12c1 8 4 34 5 39c2 12 14 54 16 61c74 209 79 226 81 233c1 3 1 5 1 9c0 2 0 3 -2 3h-2c-95 16 -125 35 -142 131v1c6 6 9 10 9 17c0 20 -17 15 -20 27c-2 10 -8 33 -8 34v5l66 -58c2 -2 2 -3 4 -3h2c36 20 73 28 113 28c38 0 79 -8 111 -31l3 2l67 58v-5
c-36 -195 -116 -202 -162 -207c-3 0 -6 -1 -8 -1v-2v-1c1 -4 3 -14 3 -15l102 -240c17 -40 24 -83 23 -127c19 16 24 53 24 75c0 24 -2 50 -15 71l-53 99c-12 21 -16 47 -16 71c0 74 66 114 133 121c52 0 95 -32 95 -86c0 -42 -32 -67 -74 -67c-29 0 -64 16 -64 49
c0 29 28 51 57 51c9 0 17 -9 17 -19c0 -22 -35 -15 -35 -31c0 -12 17 -12 25 -12c13 0 31 3 35 18v10c0 32 -25 49 -55 49c-52 0 -96 -29 -96 -83c0 -50 31 -89 54 -131c19 -34 30 -70 30 -107c0 -23 -3 -45 -12 -66c-21 -47 -68 -91 -120 -106c-4 -1 -15 -4 -16 -4h-53
c-12 0 -29 7 -39 12c-55 26 -84 54 -84 116zM156 566c1 -4 14 -3 17 -3s25 2 25 5c0 7 -20 28 -28 28h-1c-1 -14 -4 -21 -13 -30zM257 568c0 -3 21 -5 25 -5h10c1 1 5 2 5 2v1c-8 10 -12 18 -13 30c-8 -3 -27 -19 -27 -28zM151 569c-1 0 -1 -3 0 -3c2 0 2 3 0 3zM290 599
c10 -9 12 -17 13 -32c9 3 30 21 30 30c0 3 -21 5 -25 5c-6 0 -14 0 -18 -3zM122 597c0 -6 20 -28 27 -28h1c1 13 5 21 13 30v1s-5 1 -6 2h-10c-4 0 -25 -2 -25 -5z" />
    <glyph glyph-name="NULL" horiz-adv-x="0" 
 />
    <glyph glyph-name="NULL" horiz-adv-x="0" 
 />
    <glyph glyph-name="CR" unicode="&#xd;" horiz-adv-x="280" 
 />
    <glyph glyph-name="space" unicode=" " horiz-adv-x="280" 
 />
    <glyph glyph-name="exclam" unicode="!" horiz-adv-x="179" 
d="M55 46c0 5 4 27 11 27h2c7 -1 40 -8 46 -8c10 -6 15 -20 15 -30c0 -22 -34 -26 -51 -26c-11 0 -23 29 -23 37zM64 188c-2 64 -12 364 -14 429v29v30c2 7 13 22 18 23c10 2 42 -21 46 -27c-3 -136 10 -271 10 -407v-77c-1 -6 -10 -6 -14 -6h-1c-17 0 -27 2 -45 6z" />
    <glyph glyph-name="quotedbl" unicode="&#x22;" horiz-adv-x="279" 
d="M54 516l-4 15l2 156c3 32 45 35 62 5c1 -25 -1 -76 1 -101v-34c-1 -6 -1 -30 -1 -35c-3 -17 -44 -30 -60 -6zM168 516l-4 15l2 156c3 32 45 35 62 5c1 -25 -1 -76 1 -101v-34c-1 -6 -1 -30 -1 -35c-3 -17 -44 -30 -60 -6z" />
    <glyph glyph-name="dollar" unicode="$" horiz-adv-x="404" 
d="M113 49c-17 14 -20 21 -20 41c0 3 1 15 1 17c5 3 20 10 24 10h131c2 0 28 13 38 19c17 10 20 30 20 48c0 95 -87 99 -155 126c-49 20 -122 71 -122 130c0 95 64 156 143 198v111l8 10h60v-99c12 0 72 3 85 2c23 -1 39 -5 39 -31v-3c-1 -8 -5 -32 -5 -34
c-1 -1 -5 -3 -6 -4c-89 9 -251 -17 -251 -139c0 -106 271 -54 271 -269c0 -77 -59 -128 -133 -137v-73c0 -1 -32 -4 -46 -5h-8s-14 0 -14 5v68c0 1 -8 4 -12 5c-6 1 -40 3 -48 4z" />
    <glyph glyph-name="quotesingle" unicode="'" horiz-adv-x="165" 
d="M54 516l-4 15l2 156c3 32 45 35 62 5c1 -25 -1 -76 1 -101v-34c-1 -6 -1 -30 -1 -35c-3 -17 -44 -30 -60 -6z" />
    <glyph glyph-name="parenleft" unicode="(" horiz-adv-x="227" 
d="M30 337c0 64 22 346 129 346c3 0 14 -1 16 -1c6 -14 9 -31 9 -46c0 -17 -18 -10 -27 -22c-54 -75 -65 -192 -65 -281c0 -84 21 -169 70 -235c7 -10 45 -28 45 -39c0 -1 -1 -2 -1 -2l-22 -45h-5c-73 0 -135 162 -144 220c-5 35 -5 69 -5 105z" />
    <glyph glyph-name="parenright" unicode=")" horiz-adv-x="227" 
d="M197 337c0 -36 0 -70 -5 -105c-9 -58 -71 -220 -144 -220h-5l-22 45s-1 1 -1 2c0 11 38 29 45 39c49 66 70 151 70 235c0 89 -11 206 -65 281c-9 12 -27 5 -27 22c0 15 3 32 9 46c2 0 13 1 16 1c107 0 129 -282 129 -346z" />
    <glyph glyph-name="comma" unicode="," horiz-adv-x="189" 
d="M71 -98c-15 61 -21 124 -21 186c0 10 2 19 10 25c7 1 36 5 42 6h3c25 0 34 -177 34 -198c0 -3 -1 -12 -1 -14c-7 -1 -39 -9 -47 -10h-8c-4 0 -11 -1 -12 5z" />
    <glyph glyph-name="hyphen" unicode="-" horiz-adv-x="380" 
d="M312 314l-20 -4h-208c-42 4 -46 49 -6 68c33 1 101 0 134 2h46h46c23 -3 40 -48 8 -66z" />
    <glyph glyph-name="period" unicode="." horiz-adv-x="185" 
d="M52 20c0 3 -2 18 -2 21c0 22 9 42 33 42c18 0 52 -6 52 -29c0 -19 -25 -54 -47 -54c-16 0 -25 7 -36 20z" />
    <glyph glyph-name="slash" unicode="/" horiz-adv-x="308" 
d="M20 24v3l205 633c4 11 7 14 18 14c9 0 45 -5 45 -15c0 -1 -1 -3 -1 -3l-205 -638s-5 -14 -9 -14c-9 0 -53 11 -53 20z" />
    <glyph glyph-name="zero" unicode="0" horiz-adv-x="486" 
d="M30 271c0 116 25 281 115 358c43 36 91 44 146 40c123 -9 167 -169 164 -298c-3 -124 -58 -355 -223 -355c-145 0 -202 129 -202 255zM93 269c0 -61 10 -130 67 -163c19 -11 42 -23 64 -23c127 0 157 209 163 297c7 108 -31 212 -94 221c-4 0 -26 1 -31 1
c-134 0 -169 -227 -169 -333z" />
    <glyph glyph-name="one" unicode="1" horiz-adv-x="278" 
d="M158 39c0 108 5 217 5 324v76c-1 26 -4 145 -5 170l-96 -69s-3 -1 -4 -1c-12 0 -38 34 -38 42c0 1 1 4 1 4c4 6 27 29 32 33c4 3 42 28 46 32c24 18 56 59 89 59c6 0 25 -16 30 -23c0 -5 4 -31 4 -36c7 -136 5 -242 5 -381v-227c0 -4 -4 -23 -5 -27c0 -2 -4 -4 -4 -4h-51
c-9 0 -9 21 -9 28z" />
    <glyph glyph-name="two" unicode="2" horiz-adv-x="436" 
d="M30 40c6 23 27 33 41 50c5 6 41 58 46 64c10 12 97 119 106 130c58 73 115 168 115 264c0 54 -35 86 -90 86c-61 0 -120 -53 -129 -114c-1 -3 0 -29 0 -33c-5 -13 -41 -28 -52 -28c-15 0 -18 40 -18 52c0 103 103 192 203 192c80 0 154 -67 154 -149
c0 -119 -90 -248 -160 -336c-32 -39 -80 -96 -124 -146l228 14c1 0 28 -1 28 -11v-3c-2 -8 -8 -43 -10 -50c-105 5 -197 -14 -302 -14c-22 0 -21 10 -36 32z" />
    <glyph glyph-name="three" unicode="3" horiz-adv-x="433" 
d="M30 122c0 5 43 45 40 36h4c1 0 10 -11 13 -17c18 -23 35 -55 66 -61h46c81 0 142 29 142 119c0 75 -45 179 -117 200c-29 8 -64 0 -63 28c0 3 1 13 1 16c4 5 19 12 22 13c54 15 153 15 153 94c0 62 -57 94 -113 94c-51 0 -110 -22 -128 -75c-2 -7 -1 -37 -12 -43
c-5 -1 -30 -4 -36 -5h-5c-13 0 -13 22 -13 33v2v2c0 98 110 152 195 152c86 0 177 -66 177 -158c0 -65 -45 -111 -100 -136c65 -59 101 -131 101 -220c0 -71 -27 -104 -79 -150c-37 -32 -87 -32 -132 -32h-8c-6 0 -34 1 -39 1c-43 12 -115 58 -115 107z" />
    <glyph glyph-name="seven" unicode="7" horiz-adv-x="438" 
d="M190 18l145 609c-3 0 -14 1 -17 1c-89 0 -177 -19 -268 -19c-7 0 -30 35 -30 39c0 20 13 31 31 34c95 -3 184 10 277 10c9 0 52 -1 61 -1c12 -6 19 -23 19 -35c0 -7 -1 -12 -4 -18c0 0 -1 0 -1 -1l-99 -409c-1 -5 -4 -28 -5 -32c-6 -27 -38 -152 -45 -178
c-2 -6 -5 -11 -10 -14c-18 2 -37 6 -54 14z" />
    <glyph glyph-name="eight" unicode="8" horiz-adv-x="473" 
d="M30 180c0 70 34 146 95 184v1c0 8 -9 19 -12 25c-21 38 -39 60 -39 104c0 114 87 211 204 211c106 0 154 -85 154 -181c0 -90 -48 -124 -115 -170c60 -18 126 -80 126 -152c0 -112 -100 -196 -210 -196c-99 0 -203 64 -203 174zM95 180c0 -72 67 -109 132 -109
c67 0 148 47 148 120c0 87 -98 137 -175 134h-2h-2c-4 -1 -19 -8 -22 -10c-55 -25 -79 -76 -79 -135zM139 491c0 -47 36 -106 91 -106h5c60 15 136 62 136 139c0 58 -21 120 -90 120c-83 0 -142 -75 -142 -153z" />
    <glyph glyph-name="nine" unicode="9" horiz-adv-x="446" 
d="M416 495c0 -51 -9 -104 -23 -153c-3 -11 -19 -56 -23 -67c-3 -11 -28 -70 -35 -84c-22 -50 -83 -186 -144 -186h-10c-15 29 -9 50 17 76c60 62 82 134 115 221c5 13 19 50 22 71v2v2c-40 -16 -92 -35 -135 -35c-90 0 -170 50 -170 145c0 84 33 170 114 200c8 3 27 9 28 9
h79c1 0 20 -6 27 -9c78 -28 138 -108 138 -192zM353 499c3 78 -81 136 -151 136c-90 0 -125 -115 -100 -183c23 -34 53 -44 95 -44c48 0 153 8 156 91z" />
    <glyph glyph-name="colon" unicode=":" horiz-adv-x="185" 
d="M52 386c0 3 -2 18 -2 21c0 22 9 42 33 42c18 0 52 -6 52 -29c0 -19 -25 -54 -47 -54c-16 0 -25 7 -36 20zM52 20c0 3 -2 18 -2 21c0 22 9 42 33 42c18 0 52 -6 52 -29c0 -19 -25 -54 -47 -54c-16 0 -25 7 -36 20z" />
    <glyph glyph-name="semicolon" unicode=";" horiz-adv-x="185" 
d="M52 386c0 3 -2 18 -2 21c0 22 9 42 33 42c18 0 52 -6 52 -29c0 -19 -25 -54 -47 -54c-16 0 -25 7 -36 20zM71 -98c-15 61 -21 124 -21 186c0 10 2 19 10 25c7 1 36 5 42 6h3c25 0 34 -177 34 -198c0 -3 -1 -12 -1 -14c-7 -1 -39 -9 -47 -10h-8c-4 0 -11 -1 -12 5z" />
    <glyph glyph-name="question" unicode="?" horiz-adv-x="436" 
d="M150 55c0 22 11 46 37 46c1 0 5 -1 5 -1c11 -17 23 -26 23 -45c0 -23 -6 -20 -23 -25c-2 0 -17 -9 -18 -9c-15 -3 -24 25 -24 34zM141 225c0 162 195 187 195 322v31c-17 40 -48 66 -94 66c-168 0 -147 -128 -166 -131h-23s-17 -5 -19 -5c-12 0 -14 31 -14 39
c0 114 127 166 223 166c95 0 163 -80 163 -171c0 -107 -93 -147 -153 -220l-3 -3c-19 -21 -61 -67 -41 -168h-59l-4 5c-1 0 -4 35 -5 51v18z" />
    <glyph glyph-name="at" unicode="@" horiz-adv-x="618" 
d="M30 282c0 149 82 305 220 368c2 1 3 1 5 2c137 65 332 4 333 -210c0 -84 -38 -192 -139 -192c-37 0 -66 29 -76 64c-22 -41 -60 -79 -107 -79c-50 0 -88 33 -88 84c0 92 97 185 190 185c30 0 44 -11 63 -34v-5c0 -13 -9 -22 -9 -34c0 -34 12 -75 23 -107c1 0 7 -1 8 -1
c54 0 61 91 61 127c0 46 -38 141 -92 152c-23 4 -41 5 -62 5c-158 0 -261 -185 -261 -325c0 -100 60 -231 176 -231c124 0 186 100 229 195c5 -4 44 -33 44 -41v-3c-39 -140 -126 -220 -275 -220c-6 0 -35 1 -42 1c-134 41 -201 163 -201 299zM246 326c0 -11 6 -17 17 -17
c39 0 71 81 71 114c-37 0 -88 -59 -88 -97z" />
    <glyph glyph-name="A" unicode="A" 
d="M479 28l-56 161l-3 2c-86 -2 -170 -9 -256 -9h-10l-1 -1l-63 -180c0 -1 -5 -1 -6 -1h-2c-28 0 -69 0 -60 24l241 648c2 5 9 18 9 19c3 2 31 5 35 5c22 0 35 -33 45 -62l209 -618c1 -4 -54 -12 -63 -16c-8 7 -16 19 -19 28zM178 247h6h3c32 2 77 5 214 5l1 1l-108 321z
" />
    <glyph glyph-name="B" unicode="B" horiz-adv-x="420" 
d="M75 56c-4 69 -21 391 -24 460v72v72c-5 18 10 23 24 23h172s17 -3 23 -5c86 -21 130 -52 130 -146c0 -53 -13 -92 -57 -127c-3 -4 -41 -29 -45 -33c-1 0 -5 -4 -5 -5c11 -14 34 -29 46 -41c32 -35 33 -87 33 -130c0 -136 -117 -200 -243 -200c-40 0 -52 23 -54 60z
M140 71c1 -5 5 -5 8 -5c86 0 155 49 155 136c0 116 -67 138 -173 122v-40c2 -32 8 -182 10 -213zM116 579c0 -9 1 -33 1 -35c0 -22 6 -127 9 -149c114 -9 205 37 205 142c0 83 -93 82 -157 82c-23 0 -35 0 -57 -5c0 -5 -1 -30 -1 -35z" />
    <glyph glyph-name="C" unicode="C" horiz-adv-x="407" 
d="M31 377c0 171 50 303 259 312c6 0 71 3 71 -5l2 -64c-15 0 -48 4 -56 4c-136 6 -200 -80 -202 -172l-4 -168c-1 -46 31 -181 79 -197c53 -17 129 3 201 10c8 -1 5 -16 5 -18c0 -16 0 -25 -5 -43c-55 -14 -157 -39 -224 -14c-127 48 -126 248 -126 344v11z" />
    <glyph glyph-name="D" unicode="D" horiz-adv-x="433" 
d="M60 53c-3 37 -9 240 -9 278c0 7 -1 110 -1 148c0 23 1 126 1 148c0 7 3 36 5 42c0 2 3 8 4 9c9 0 53 1 63 1c58 0 108 -2 160 -28c16 -8 39 -32 46 -42c67 -84 84 -172 84 -277c0 -94 -7 -236 -107 -279c-69 -29 -110 -46 -183 -46h-44c-18 6 -21 32 -19 46zM119 615
c0 -57 0 -325 1 -382c0 -19 4 -138 4 -157h22c37 0 62 11 97 26c2 1 3 1 5 2c3 2 7 4 12 5c85 37 84 149 84 235c0 89 -16 190 -94 247c-33 24 -93 24 -131 24z" />
    <glyph glyph-name="E" unicode="E" horiz-adv-x="394" 
d="M71 35c-3 74 -19 453 -21 528v51v51c4 12 14 28 28 28h232c9 0 28 -5 28 -16c0 -6 -6 -49 -14 -50l-214 -2c0 -1 5 -15 5 -16v-10c1 -49 4 -166 4 -166l5 -15c16 1 90 1 107 0c9 0 38 -4 38 -20c0 -1 -18 -49 -29 -49c-38 1 -77 0 -116 -5v-12v-11c1 -30 11 -205 13 -235
h204c26 0 33 -20 33 -43c0 -8 -12 -13 -15 -22c-84 -13 -171 -9 -255 -9c-15 0 -28 8 -33 23z" />
    <glyph glyph-name="F" unicode="F" horiz-adv-x="382" 
d="M50 554v120l6 14c27 11 251 0 260 5c6 -1 32 -5 36 -5c2 0 9 -4 9 -5s1 -10 1 -12c0 -14 -1 -32 -10 -44h-42c-64 0 -129 5 -193 5c0 -14 -2 -79 -1 -93c0 -11 3 -65 4 -77h145c3 0 29 -15 4 -67h-149l3 -365h-60c-2 46 -12 296 -13 342v182z" />
    <glyph glyph-name="G" unicode="G" horiz-adv-x="448" 
d="M31 275c-8 155 21 425 253 418h8c47 -1 126 -2 126 -55c0 -15 -9 -26 -36 -18c-254 52 -281 -139 -281 -323c0 -118 38 -213 173 -213c15 0 60 0 70 10l5 5l-10 202h-74c-4 0 -15 47 -15 52c0 13 25 15 33 15c2 0 36 1 49 1c7 0 41 -1 49 -1c19 -5 23 -14 28 -32
c1 -35 8 -197 9 -232v-14c0 -70 -84 -75 -138 -75c-158 0 -241 107 -249 260z" />
    <glyph glyph-name="H" unicode="H" horiz-adv-x="500" 
d="M382 46v251l-248 -4c-2 -1 -12 -4 -14 -5v-39v-40c1 -25 7 -139 9 -163c-7 -14 -22 -18 -37 -18c-31 0 -32 31 -32 56v4c-2 48 -9 314 -10 363v100v100c2 6 5 23 14 23h5c2 -1 21 -4 23 -5h5c6 -1 20 -3 20 -4v-304l265 4v318l7 10h11c16 0 28 -1 45 -5
c1 -17 5 -99 5 -116v-353v-201l-5 -4h-56z" />
    <glyph glyph-name="I" unicode="I" horiz-adv-x="169" 
d="M50 456c0 29 1 179 1 209c2 15 6 19 20 19c12 0 41 3 45 -10c1 -86 3 -541 3 -628v-13c0 -24 -28 -20 -45 -20c-4 0 -14 1 -15 1l-4 9c-1 2 -4 141 -5 200v233z" />
    <glyph glyph-name="J" unicode="J" horiz-adv-x="384" 
d="M10 94c0 25 24 21 42 21c33 0 16 -41 101 -38c121 5 132 154 132 237c0 94 -15 233 -15 325c0 17 42 31 52 31c15 0 22 -59 22 -66c3 -32 9 -172 9 -199c0 -3 1 -84 1 -97c0 -98 -16 -204 -97 -267c-3 -2 -29 -16 -38 -19c-14 -6 -209 -36 -209 72z" />
    <glyph glyph-name="K" unicode="K" horiz-adv-x="460" 
d="M358 9c-14 31 -105 220 -117 252c-4 7 -26 66 -28 74c-3 6 -10 19 -10 19h-5l-70 -51v-32c0 -52 6 -159 6 -210v-51c-12 -7 -29 -5 -40 -5h-17l-27 655h61l13 -274c106 69 192 178 274 292c5 -4 28 -27 33 -32c2 -3 9 -13 9 -14c0 0 -7 -10 -9 -14
c-23 -41 -129 -170 -177 -213l160 -359c3 -8 5 -11 5 -19c0 -12 -43 -27 -49 -27h-2c-2 1 -9 7 -10 9z" />
    <glyph glyph-name="L" unicode="L" horiz-adv-x="322" 
d="M50 563v102c0 4 10 18 14 18c7 1 38 -12 41 -14c3 -1 10 -4 8 -4l13 -585c37 0 87 5 124 5c11 0 39 -1 41 -1l9 -4c0 -1 1 -8 1 -11c0 -10 3 -41 -10 -45c-44 -5 -113 -14 -167 -14c-33 0 -60 4 -61 42z" />
    <glyph glyph-name="M" unicode="M" horiz-adv-x="677" 
d="M562 436v57c-1 26 -4 90 -5 93l-5 13c-5 -7 -34 -43 -41 -51c-24 -25 -138 -142 -162 -166c-10 -5 -29 -17 -38 -28h-37s-4 3 -4 4c-1 2 -9 13 -10 14c-19 25 -110 139 -130 163c-10 -59 -10 -118 -10 -178v-13c0 -87 7 -218 7 -307v-3c0 -17 0 -34 -20 -34h-4
c-13 0 -35 0 -40 14c-7 100 -13 242 -13 341c0 22 1 83 1 87c1 34 8 194 10 227c6 3 39 17 45 19h6c16 0 62 -100 79 -121c4 -5 75 -93 101 -125c1 -2 5 -5 5 -5h2h3c21 20 115 114 134 135c9 9 76 88 84 97c5 7 31 32 37 37c2 2 12 5 14 5c18 0 38 -15 42 -33
c13 -84 14 -168 14 -253c0 -19 -1 -76 -1 -81c0 -47 -1 -286 -3 -334h-61v426z" />
    <glyph glyph-name="N" unicode="N" horiz-adv-x="497" 
d="M116 537l6 -483c-5 -44 -34 -43 -40 -43v0h-17c-2 1 -9 5 -9 5l-6 637c0 19 3 34 38 34c28 0 46 -38 56 -60l3 -6c43 -87 185 -398 231 -477l3 530c0 11 6 24 18 24c17 0 32 -8 48 -14v-76c0 -180 -7 -415 -5 -597c-12 -13 -25 -11 -42 -11c-15 0 -74 48 -284 537z" />
    <glyph glyph-name="O" unicode="O" horiz-adv-x="574" 
d="M292 11c-350 -13 -332 661 -43 684c205 28 303 -194 294 -364c0 -165 -66 -320 -251 -320zM233 625c-87 -26 -189 -239 -109 -438c30 -75 90 -105 168 -105c150 0 180 140 180 264c0 138 -57 331 -239 279z" />
    <glyph glyph-name="P" unicode="P" horiz-adv-x="430" 
d="M74 21l-20 548c-1 7 -4 43 -4 51v3c0 7 27 54 32 62c38 5 56 6 87 6c147 0 241 -93 241 -242c0 -143 -160 -194 -277 -203v-21c0 -61 6 -122 6 -183v-16l-6 -5h-59zM120 601v-14c1 -50 8 -210 9 -229c0 -6 4 -31 4 -37c5 0 24 -1 29 -1c71 0 182 44 182 129
c0 27 -9 59 -18 82c-29 74 -84 89 -161 89c-10 0 -33 4 -45 -5v-14z" />
    <glyph glyph-name="Q" unicode="Q" horiz-adv-x="590" 
d="M417 40h-3l-12 -6c-37 -15 -56 -23 -102 -23c-161 0 -270 148 -270 299c0 115 56 353 215 376h9c196 23 306 -123 306 -305c0 -69 -9 -144 -33 -210c-12 -33 -32 -55 -52 -84v-3v-2c10 -11 38 -37 38 -56c0 -5 0 -7 -5 -10c-13 -7 -47 -24 -47 -23l-42 47h-2zM96 310
c0 -115 80 -228 201 -228c29 0 42 0 66 14l1 2c0 1 -1 2 -1 2c-2 3 -8 13 -10 15c-7 8 -43 44 -51 51v5c0 37 24 22 47 42c30 -22 47 -51 75 -75c138 156 69 549 -183 482c-105 -28 -145 -222 -145 -310z" />
    <glyph glyph-name="R" unicode="R" horiz-adv-x="478" 
d="M205 321c-9 0 -51 4 -61 4h-18c0 -85 7 -195 7 -279v-1v-1c0 -11 0 -44 -5 -44h-59c0 25 2 88 -4 115c-3 66 -12 373 -15 439v50v49c7 20 43 34 62 38c148 29 346 -11 346 -195c0 -99 -94 -152 -183 -162c4 -7 20 -39 24 -46c2 -7 25 -59 28 -66c27 -57 66 -119 84 -182
v-3c0 -13 -48 -26 -54 -26h-2c-55 101 -91 212 -150 310zM120 400c33 -8 47 -10 77 -10c58 0 195 26 195 106c0 107 -140 166 -276 124v-21v-21c1 -27 4 -151 4 -178z" />
    <glyph glyph-name="S" unicode="S" horiz-adv-x="464" 
d="M59 56v19c0 14 0 24 5 37c2 0 14 2 16 2c53 0 103 -35 157 -35c74 0 132 39 132 117c0 61 -48 121 -108 136l-164 42c-50 13 -67 67 -67 111c0 97 80 184 174 203c28 6 68 6 96 6c8 0 42 -1 50 -1c17 -3 51 -14 51 -37c0 -31 -19 -15 -28 -34h-150
c-63 0 -127 -78 -127 -137c0 -21 6 -32 24 -45c110 -27 213 -42 285 -136c2 -2 16 -28 19 -37c3 -7 10 -27 10 -28v-89c0 -11 -18 -48 -23 -56c-41 -63 -105 -81 -176 -81c-10 0 -39 0 -40 1c-35 4 -95 20 -131 37c-1 1 -5 4 -5 5z" />
    <glyph glyph-name="T" unicode="T" horiz-adv-x="405" 
d="M175 16c-8 29 -5 55 -5 84c-1 77 -3 438 -5 515h-84c-15 1 -61 -2 -61 24v3c0 14 0 38 14 43c99 -1 197 6 296 6h36c6 -1 16 -4 19 -10c-1 -8 -4 -40 -9 -51c0 -2 -4 -5 -4 -5l-137 -10v-594c0 -7 -17 -10 -22 -10h-5c-5 1 -28 5 -33 5z" />
    <glyph glyph-name="U" unicode="U" horiz-adv-x="499" 
d="M30 662c4 24 21 24 40 24h16c6 -5 12 -15 15 -18c-1 -50 -3 -302 -2 -352c1 -138 13 -240 171 -240c45 0 89 7 100 57c21 98 24 196 24 296c0 68 -1 166 -7 232c15 14 41 38 62 25c26 -16 19 -172 19 -205v-20c-1 -41 -8 -194 -9 -220c-6 -103 -14 -183 -113 -225
c-2 -1 -16 -5 -19 -5h-121c-54 0 -93 39 -126 76c-41 44 -46 156 -47 210c-1 52 -3 313 -3 365z" />
    <glyph glyph-name="V" unicode="V" horiz-adv-x="573" 
d="M218 166l-197 490c-3 8 45 29 51 29c1 0 6 0 6 -1l28 -56l173 -434l45 -92l157 563c3 9 11 21 19 28c9 -4 53 -29 52 -33l-170 -615c-8 -29 -23 -62 -45 -62c-4 0 -32 3 -35 5c0 1 -7 14 -9 19s-21 51 -23 56c-8 16 -44 88 -52 103z" />
    <glyph glyph-name="W" unicode="W" horiz-adv-x="797" 
d="M373 283l-99 -215c0 -10 -4 -27 -13 -33c-7 -1 -36 -4 -42 -5c-1 0 -9 -5 -10 -4c-12 4 -27 29 -23 42l-156 548c-10 14 -10 24 -10 40c0 2 1 14 1 16c6 12 32 10 41 10h14l6 -5l149 -530l105 225c3 6 19 19 25 19c31 0 42 -20 56 -44c1 -1 2 -3 3 -3c5 -9 45 -81 51 -89
c10 -16 60 -88 71 -103c1 -2 7 -9 9 -10h3h1l156 529c2 8 9 24 18 24c16 0 48 -17 48 -35c0 -2 0 -12 -1 -12l-174 -599c-4 -15 -31 -33 -44 -33c-14 0 -23 16 -29 27c0 1 -1 1 -1 2c-3 4 -21 37 -24 42c-8 11 -72 105 -80 116c-4 8 -37 64 -42 70c-1 3 -7 9 -9 10z" />
    <glyph glyph-name="X" unicode="X" horiz-adv-x="501" 
d="M64 49c0 7 1 11 5 19c19 33 111 191 131 224c1 2 4 9 5 10v2v3c-57 115 -117 228 -185 329v3c0 13 14 44 32 44c12 0 26 -8 33 -19c9 -12 45 -71 51 -83c16 -29 97 -181 111 -209l187 329c19 -13 47 -7 47 -37c0 -23 -13 -64 -193 -364l160 -218s4 -7 4 -10
c3 -4 9 -20 10 -23c0 0 1 -2 1 -3c0 -4 -20 -31 -24 -35c-35 -1 -32 11 -47 34c-12 18 -68 96 -80 112c-3 3 -42 53 -56 70c-1 1 -3 4 -5 4l-9 -9c-116 -211 -124 -216 -140 -216c-26 0 -38 21 -38 43z" />
    <glyph glyph-name="Y" unicode="Y" horiz-adv-x="491" 
d="M25 643c-4 6 -5 11 -5 18c0 2 1 6 1 6l42 29h5c1 0 115 -148 160 -195c3 -3 21 -25 23 -28l19 -19h3h1c2 1 5 4 5 5c7 13 40 71 48 84c22 38 57 112 87 149l10 10h2h2c4 -2 16 -11 19 -15c7 -6 24 -22 24 -23v-4c0 -3 -17 -35 -24 -47c-6 -11 -63 -111 -69 -121
c-16 -27 -51 -96 -51 -99v-290c4 -24 5 -36 5 -59c0 -2 0 -44 -5 -44h-61l-10 361c0 2 -62 78 -89 107c-20 22 -121 155 -142 175z" />
    <glyph glyph-name="Z" unicode="Z" horiz-adv-x="451" 
d="M63 23c-13 1 -33 14 -33 29v4l306 565l-221 5c-21 1 -76 -11 -76 27c0 4 17 39 24 39h325c20 0 33 -6 33 -28c0 -13 -3 -31 -9 -43l-283 -522c51 -6 123 -16 184 -16c23 0 46 6 69 6c13 0 30 -37 30 -47c0 -29 -71 -29 -90 -29h-2c-90 0 -166 13 -257 10z" />
    <glyph glyph-name="a" unicode="a" horiz-adv-x="584" 
d="M455 173l-5 10c0 1 -49 4 -70 5h-21c-68 0 -137 -3 -205 -15c-4 -8 -31 -77 -35 -86c-3 -7 -23 -47 -29 -57c-3 -7 -12 -24 -23 -24c-14 0 -47 12 -47 29c0 8 1 10 5 18v1c213 458 254 629 289 629c26 0 45 -44 52 -62c80 -221 114 -303 193 -546c5 -15 5 -17 5 -30
c0 -18 -49 -23 -51 -23c-4 0 -9 6 -9 6zM314 564l-5 -8c-1 -4 -83 -208 -118 -293c0 -2 -4 -12 -4 -14h9c4 1 34 5 38 5c29 1 168 5 198 5c-32 97 -88 239 -104 278z" />
    <glyph glyph-name="b" unicode="b" horiz-adv-x="434" 
d="M74 23c-4 76 -20 436 -23 514c0 4 -1 51 -1 68c0 10 1 58 1 69c5 11 30 8 40 8h21c24 0 137 -3 161 -4c73 -9 141 -67 141 -145c0 -82 -55 -144 -123 -185c54 -29 122 -74 122 -146c0 -21 -4 -46 -13 -66c-56 -127 -154 -137 -276 -137h-35c-5 7 -12 16 -15 24zM116 591
c0 -5 1 -24 1 -27c1 -29 7 -168 9 -197c2 0 12 -1 14 -1c117 -8 203 84 203 171c0 78 -110 76 -158 76c-11 0 -45 -1 -49 -1l-19 -5s-1 -12 -1 -16zM135 300l5 -230h15c81 0 184 27 184 127c0 83 -110 123 -204 103z" />
    <glyph glyph-name="c" unicode="c" horiz-adv-x="421" 
d="M30 289c0 118 38 295 149 361c47 28 107 47 162 47c19 0 29 0 50 -5c7 -15 10 -32 10 -49v-1c0 -5 0 -14 -10 -11c-239 11 -294 -157 -294 -352c0 -41 9 -82 37 -114c35 -38 75 -72 128 -76c19 -1 107 -4 127 -4c7 -1 5 -13 5 -16c0 -15 -1 -25 -4 -40c0 -2 -1 -3 -1 -5
c-20 -8 -48 -6 -67 -6c-35 0 -79 -4 -112 10c-116 50 -180 138 -180 261z" />
    <glyph glyph-name="d" unicode="d" horiz-adv-x="508" 
d="M60 91l-10 587c8 20 70 23 94 23h5c2 0 45 1 61 1c172 -1 278 -103 278 -283c0 -262 -115 -399 -383 -399c-42 0 -44 32 -45 67v4zM125 105c0 -1 1 -1 1 -2c2 -5 5 -8 9 -12h21c199 0 261 160 261 337c0 128 -72 208 -202 208c-34 0 -60 0 -94 -5c0 -26 -1 -145 -1 -170
c0 -128 0 -228 5 -356z" />
    <glyph glyph-name="e" unicode="e" horiz-adv-x="413" 
d="M50 650c0 3 3 19 5 24c15 26 277 5 292 14c32 -2 33 -51 14 -65c-11 0 -60 -1 -70 -1c-57 0 -114 -1 -170 -1v-217h136c10 0 24 -32 24 -39c0 -8 -15 -26 -24 -27l-131 -9c0 -11 -1 -64 -1 -75c0 -58 1 -121 7 -179h7c71 0 141 9 211 9c14 0 27 1 41 -5c0 -2 1 -12 1 -14
c0 -13 4 -44 -10 -47c-39 -2 -216 -13 -254 -14c-2 0 -19 -1 -24 -1c-4 0 -20 1 -24 1c-14 4 -14 28 -14 37z" />
    <glyph glyph-name="f" unicode="f" horiz-adv-x="433" 
d="M50 664c2 16 16 24 24 37c31 4 175 5 206 5h47c31 0 57 0 86 -14v-5c0 -13 -7 -45 -19 -52c-70 3 -207 3 -273 -4v-180c17 0 96 1 113 0c10 0 52 -3 62 -4v-61l-19 -5h-128c-8 -1 -28 -4 -28 -5l1 -362h-61z" />
    <glyph glyph-name="g" unicode="g" horiz-adv-x="537" 
d="M399 693h59l37 -9l5 -5c0 -3 1 -18 1 -22v-3c0 -10 0 -22 -6 -32h-16c-31 0 -60 5 -91 5c-212 0 -319 -200 -278 -407c22 -109 126 -149 229 -149c31 0 62 -3 90 9c1 28 5 156 5 184c0 14 -1 77 -1 90h-107c-26 0 -29 28 -29 45c0 20 11 20 34 25c8 0 50 1 59 1
c47 0 105 14 115 -43c0 -19 1 -108 1 -128c0 -61 1 -138 -6 -202c-12 -52 -118 -52 -155 -52c-131 0 -263 61 -297 193c-68 265 60 500 351 500z" />
    <glyph glyph-name="h" unicode="h" horiz-adv-x="538" 
d="M415 2v287c-96 0 -193 4 -290 -9v-282h-61c-3 84 -14 518 -14 603v89l9 5h57l9 -339l259 4l33 6l5 315l9 9h53l4 -5v-155c-1 -155 -4 -518 -4 -518l-5 -10h-64z" />
    <glyph glyph-name="i" unicode="i" horiz-adv-x="181" 
d="M50 656c0 17 0 35 20 35c12 0 42 3 46 -10l14 -524c0 -8 1 -67 1 -85c0 -15 -1 -53 -1 -56l-5 -4h-56c-4 92 -19 524 -19 617v27z" />
    <glyph glyph-name="j" unicode="j" horiz-adv-x="362" 
d="M10 44c0 20 20 20 29 33l170 9c30 2 42 66 46 91c0 1 1 3 1 4c5 45 4 90 4 135c0 85 -5 171 -5 256c0 13 -1 86 -1 99c8 13 39 20 52 20c9 0 11 -3 18 -15c-2 -122 7 -252 7 -374v-14c0 -82 1 -226 -85 -262c-47 -20 -104 -16 -153 -16c-8 0 -42 1 -49 1
c-13 3 -34 19 -34 33z" />
    <glyph glyph-name="k" unicode="k" horiz-adv-x="530" 
d="M264 369l-127 -111l-1 -252l-70 -6c6 205 -3 405 -12 604c-1 21 -2 41 -3 62c-1 12 43 12 53 12h1c4 0 14 -1 14 -1l14 -339c111 88 218 227 319 352c1 1 11 8 14 9h2c16 0 41 -23 41 -38c0 -13 2 -13 -1 -14l-5 -4l-187 -218v-4l172 -380v-5l-14 -10l-33 -19h-5
c-12 8 -19 27 -23 38c-13 28 -100 225 -112 254c-9 20 -26 51 -37 70z" />
    <glyph glyph-name="l" unicode="l" horiz-adv-x="378" 
d="M84 37c-1 8 -5 48 -5 57c-1 20 -4 182 -5 202c-6 126 -24 252 -24 378v18c1 0 2 1 3 1c13 5 30 12 59 4c1 -2 8 -58 9 -80c11 -162 23 -336 24 -500l5 -23l202 -15c6 0 6 -11 6 -15v-2c0 -17 -1 -26 -6 -44h-94c-14 1 -127 4 -142 5h-2c-13 1 -21 2 -30 14z" />
    <glyph glyph-name="m" unicode="m" horiz-adv-x="707" 
d="M591 1l-10 507l-5 57c-7 -13 -44 -69 -52 -81c-24 -33 -137 -186 -162 -218c-4 -5 -23 -25 -28 -29c-3 -2 -13 -9 -14 -9s-8 4 -9 5h-3h-2c-1 -1 -9 -5 -10 -5h-2c-10 0 -25 32 -26 33c-5 6 -25 33 -29 39l-119 203v-29c0 -118 6 -235 6 -353c0 -27 -1 -98 -1 -102l-5 -4
h-56l-9 585c-2 6 -5 36 -5 42v3c0 9 5 19 9 26c24 -2 21 5 41 5c6 0 13 -4 16 -10c25 -43 136 -258 161 -301c7 -12 23 -34 34 -47l9 9c8 9 125 169 166 229c11 15 57 92 66 109c8 9 22 29 39 29c33 0 43 -29 46 -58c3 -17 9 -97 10 -114c2 -72 9 -396 9 -468
c0 -9 1 -46 1 -53h-66z" />
    <glyph glyph-name="n" unicode="n" horiz-adv-x="547" 
d="M411 24c-28 61 -63 101 -95 157l-190 332v-10c0 -144 10 -286 10 -430c0 -16 -1 -61 -1 -63l-4 -5h-57l-24 645v12c0 9 6 27 19 27c24 0 40 -4 53 -24l251 -447c6 -10 34 -51 43 -62l1 514c0 17 3 25 19 25s34 -6 48 -15v-40v-40c-2 -55 -5 -513 -7 -566
c-1 -26 -26 -23 -43 -34z" />
    <glyph glyph-name="o" unicode="o" horiz-adv-x="578" 
d="M30 350c0 109 25 248 128 315c108 71 260 8 266 4c98 -59 124 -165 124 -273c0 -133 -36 -363 -214 -363c-212 0 -304 108 -304 317zM96 349c0 -166 63 -245 230 -245c135 0 150 204 150 301c0 175 -74 229 -222 220c0 0 0 1 -1 1c-129 -21 -157 -166 -157 -277z" />
    <glyph glyph-name="p" unicode="p" horiz-adv-x="480" 
d="M51 396c0 33 1 186 1 219c-2 20 8 42 28 47c15 4 85 18 100 19c3 1 44 1 59 1c9 0 50 0 59 -1c96 -35 162 -118 162 -221c0 -148 -228 -188 -337 -187v-256h-62c-12 128 -10 251 -10 379zM244 616c-9 0 -34 -1 -36 -1c-12 0 -85 -17 -85 -19v-251c55 0 113 5 166 23
c32 11 89 36 100 76c0 5 1 26 1 31c0 65 -49 118 -110 140c-5 0 -31 1 -36 1z" />
    <glyph glyph-name="q" unicode="q" horiz-adv-x="611" 
d="M30 340c0 156 80 367 267 367c38 0 81 -9 118 -19c139 -37 166 -165 166 -292c0 -96 -27 -188 -72 -272v-5l34 -38v-24c-5 -2 -25 -12 -29 -14c-2 -1 -12 -9 -14 -9c-13 -3 -31 27 -43 32c-51 -24 -83 -33 -140 -33c-195 0 -287 123 -287 307zM96 334
c0 -144 67 -230 214 -230c20 0 63 -5 81 10c-9 6 -45 35 -53 43c-15 14 -15 15 -15 29c0 24 4 38 30 38c34 0 65 -45 89 -62c47 31 68 197 68 247c18 144 -77 243 -220 227c-146 0 -194 -190 -194 -302z" />
    <glyph glyph-name="r" unicode="r" horiz-adv-x="512" 
d="M50 638c0 44 31 48 68 53h4c130 18 370 39 370 -150c0 -105 -83 -182 -185 -196c0 -2 4 -9 4 -10c8 -13 69 -119 76 -133c11 -21 62 -125 71 -147c5 -8 5 -13 5 -21c0 -23 -48 -25 -57 -27c-14 32 -87 178 -104 210c-3 4 -46 77 -62 104c-2 3 -5 9 -5 9c-1 3 -7 5 -8 5
c-32 0 -65 -3 -97 -3c0 -24 2 -134 1 -158c-1 -51 -4 -171 -5 -171l-4 -5h-53l-5 5s-9 439 -14 627v8zM131 406c13 -5 24 -5 38 -5c87 0 257 10 257 131c0 138 -210 116 -308 96c0 -6 3 -49 3 -56c0 -10 1 -40 1 -43c1 -18 7 -105 9 -123z" />
    <glyph glyph-name="s" unicode="s" horiz-adv-x="450" 
d="M77 42v52c0 2 4 9 5 10h2c43 0 84 -20 129 -20c60 0 140 25 140 101c0 143 -323 41 -323 284c0 162 127 228 274 228c24 0 34 -3 67 -9c24 -6 20 -35 20 -54c0 -14 -10 -14 -21 -14c-25 0 -50 6 -74 6c-102 0 -201 -34 -201 -154c0 -182 325 -72 325 -287
c0 -97 -92 -171 -186 -171c-18 0 -81 3 -90 4c-16 2 -58 16 -62 20z" />
    <glyph glyph-name="t" unicode="t" horiz-adv-x="451" 
d="M180 16v609c-15 0 -90 -3 -106 -2c-26 1 -54 16 -54 45c0 14 17 25 30 26c94 -2 189 5 283 5c18 0 67 -1 68 -1l29 -9s1 -5 1 -8c0 -15 -6 -43 -20 -53c-30 3 -41 4 -64 4h-12c-13 0 -75 -3 -88 -4v-612c0 -6 -44 -5 -44 -5h-15z" />
    <glyph glyph-name="u" unicode="u" horiz-adv-x="500" 
d="M54 694c9 0 47 -5 47 -17v-3c0 -8 -4 -40 -5 -48l2 -350c1 -120 66 -206 155 -206c17 0 43 5 62 11c97 31 74 385 77 549c0 11 1 22 1 31c1 5 8 25 10 29c0 1 3 5 5 5c17 0 42 -10 56 -19c0 -10 1 -57 1 -67c0 -101 7 -261 -7 -362c-19 -132 -53 -247 -202 -247
c-122 0 -219 100 -221 242l-5 399v2c0 17 0 51 24 51z" />
    <glyph glyph-name="v" unicode="v" horiz-adv-x="549" 
d="M244 10c-10 20 -57 120 -66 142c-10 22 -40 98 -43 109l-114 359s-1 13 -1 17c0 28 3 46 35 46c16 0 12 -20 30 -49l121 -368c14 -44 35 -92 57 -133l5 -5l189 536c2 3 15 34 22 34c1 0 2 -1 2 -1c3 -1 17 -8 19 -9c9 -6 29 -19 29 -20v-14l-223 -630
c-7 -18 -23 -24 -41 -24h-2c-8 0 -16 0 -19 10z" />
    <glyph glyph-name="w" unicode="w" horiz-adv-x="732" 
d="M327 228c0 1 -3 4 -4 5h-3h-2c-1 -1 -4 -7 -5 -10c-4 -10 -17 -43 -19 -47c-7 -22 -41 -121 -47 -142c-14 -9 -10 -19 -33 -19c-22 0 -29 4 -34 24l-104 435l-56 160v15c0 24 1 39 27 39c9 0 33 -11 35 -20l138 -504c28 43 46 170 91 159c11 -3 23 0 31 -9l146 -177l6 6
l99 374c3 9 16 48 19 58c10 30 15 99 52 113c0 0 8 -3 9 -4c18 -10 24 -17 39 -34c-9 -24 -46 -136 -53 -161c-18 -65 -97 -371 -114 -437c0 -28 -24 -43 -50 -43c-27 0 -41 60 -54 76c-17 22 -97 122 -114 143z" />
    <glyph glyph-name="x" unicode="x" horiz-adv-x="537" 
d="M59 38l161 329v4c-10 10 -48 62 -56 74c-6 8 -57 86 -64 95c-4 7 -61 88 -66 95c-1 2 -8 13 -9 13c-1 2 -4 5 -5 6c2 31 24 36 53 36h2l172 -245c1 -1 3 -5 4 -6h3h2l100 234l23 23h4c13 0 43 -29 43 -40l-1 -1c-1 -3 -7 -12 -10 -14l-116 -266l167 -255
c14 -15 51 -54 51 -78c0 -1 -1 -4 -1 -4l-45 -23l-3 -1c-8 0 -17 19 -20 24c-6 8 -54 69 -60 78c-19 27 -105 159 -123 187h-4l-133 -274l-13 -23h-5c-7 0 -11 1 -18 5c-10 3 -33 13 -33 13v14z" />
    <glyph glyph-name="y" unicode="y" horiz-adv-x="507" 
d="M234 -1c-2 3 -3 19 -3 22v3c-1 17 -3 87 -10 364c0 1 -2 7 -4 9c-43 77 -107 150 -166 216l-7 7c-5 7 -10 13 -16 19c-7 12 -8 16 -7 25c1 22 3 36 27 35c7 0 12 -1 20 -6c21 -24 118 -138 138 -162c4 -6 35 -48 38 -53c1 -2 8 -9 10 -10l156 189c8 18 22 32 37 44
c16 -8 32 -29 40 -38v-5v-5c-3 -5 -14 -24 -15 -27l-184 -232l11 -372v-5c-1 -20 -7 -26 -26 -25h-8c-5 1 -27 5 -31 7z" />
    <glyph glyph-name="z" unicode="z" horiz-adv-x="458" 
d="M159 38c-31 0 -61 -19 -88 -19c-13 0 -41 22 -41 37c0 1 7 10 10 14c6 9 41 54 50 64l255 484h-34c-54 0 -109 -5 -165 -5h-56c-12 2 -26 5 -37 9c0 2 -1 12 -1 14c0 12 -4 42 10 46c111 -3 215 9 326 9c25 0 40 -10 40 -39c0 -18 -12 -35 -19 -53l-256 -481v-12
c18 0 102 -7 119 -9c3 0 7 -1 10 -1c35 -4 74 -8 104 -26c1 0 5 -4 5 -5s-1 -2 -1 -4c-3 -15 -11 -47 -28 -47c-64 0 -134 24 -203 24z" />
    <glyph glyph-name="Agrave" unicode="&#xc0;" 
d="M479 28l-56 161l-3 2c-86 -2 -170 -9 -256 -9h-10l-1 -1l-63 -180c0 -1 -5 -1 -6 -1h-2c-28 0 -69 0 -60 24l241 648c2 5 9 18 9 19c3 2 31 5 35 5c22 0 35 -33 45 -62l209 -618c1 -4 -54 -12 -63 -16c-8 7 -16 19 -19 28zM178 247h6h3c32 2 77 5 214 5l1 1l-108 321z
M349 770c-10 -9 -28 -24 -42 -29l-73 81l-5 12c-1 2 7 22 12 27c1 0 10 8 15 10c0 0 1 1 2 1c17 6 80 -72 89 -94c0 -1 1 -6 2 -8z" />
    <glyph glyph-name="Aacute" unicode="&#xc1;" 
d="M479 28l-56 161l-3 2c-86 -2 -170 -9 -256 -9h-10l-1 -1l-63 -180c0 -1 -5 -1 -6 -1h-2c-28 0 -69 0 -60 24l241 648c2 5 9 18 9 19c3 2 31 5 35 5c22 0 35 -33 45 -62l209 -618c1 -4 -54 -12 -63 -16c-8 7 -16 19 -19 28zM178 247h6h3c32 2 77 5 214 5l1 1l-108 321z
M228 770c1 2 2 7 2 8c9 22 72 100 89 94c1 0 2 -1 2 -1c5 -2 14 -10 15 -10c5 -5 13 -25 12 -27l-5 -12l-73 -81c-14 5 -32 20 -42 29z" />
    <glyph glyph-name="Acircumflex" unicode="&#xc2;" 
d="M479 28l-56 161l-3 2c-86 -2 -170 -9 -256 -9h-10l-1 -1l-63 -180c0 -1 -5 -1 -6 -1h-2c-28 0 -69 0 -60 24l241 648c2 5 9 18 9 19c3 2 31 5 35 5c22 0 35 -33 45 -62l209 -618c1 -4 -54 -12 -63 -16c-8 7 -16 19 -19 28zM178 247h6h3c32 2 77 5 214 5l1 1l-108 321z
M191 763c-1 3 2 11 3 12c7 12 43 63 52 74c9 12 26 30 45 30c29 0 109 -82 109 -109c0 -11 -28 -25 -34 -28h-1c-3 -1 -8 -5 -8 -5c-21 8 -39 65 -60 65c-17 0 -35 -56 -68 -69c-6 3 -26 19 -30 22c-3 1 -8 7 -8 8z" />
    <glyph glyph-name="Atilde" unicode="&#xc3;" 
d="M479 28l-56 161l-3 2c-86 -2 -170 -9 -256 -9h-10l-1 -1l-63 -180c0 -1 -5 -1 -6 -1h-2c-28 0 -69 0 -60 24l241 648c2 5 9 18 9 19c3 2 31 5 35 5c22 0 35 -33 45 -62l209 -618c1 -4 -54 -12 -63 -16c-8 7 -16 19 -19 28zM178 247h6h3c32 2 77 5 214 5l1 1l-108 321z
M172 779c0 43 33 81 77 81c50 0 58 -53 92 -53c21 0 14 53 35 53c16 0 38 -15 48 -22v-2c0 -44 -33 -93 -77 -93c-41 0 -66 20 -89 52h-7c-21 0 -19 -52 -60 -52c-14 0 -19 26 -19 36z" />
    <glyph glyph-name="Adieresis" unicode="&#xc4;" 
d="M479 28l-56 161l-3 2c-86 -2 -170 -9 -256 -9h-10l-1 -1l-63 -180c0 -1 -5 -1 -6 -1h-2c-28 0 -69 0 -60 24l241 648c2 5 9 18 9 19c3 2 31 5 35 5c22 0 35 -33 45 -62l209 -618c1 -4 -54 -12 -63 -16c-8 7 -16 19 -19 28zM178 247h6h3c32 2 77 5 214 5l1 1l-108 321z
M202 767c0 21 17 43 39 43c16 0 36 -17 38 -34c3 -26 -19 -42 -42 -42c-18 0 -35 16 -35 33zM325 776c6 21 19 39 42 39c20 0 32 -22 32 -39c0 -14 -9 -39 -28 -39c-16 0 -50 14 -46 39z" />
    <glyph glyph-name="Aring" unicode="&#xc5;" 
d="M479 28l-56 161l-3 2c-86 -2 -170 -9 -256 -9h-10l-1 -1l-63 -180c0 -1 -5 -1 -6 -1h-2c-28 0 -69 0 -60 24l241 648c2 5 9 18 9 19c3 2 31 5 35 5c22 0 35 -33 45 -62l209 -618c1 -4 -54 -12 -63 -16c-8 7 -16 19 -19 28zM178 247h6h3c32 2 77 5 214 5l1 1l-108 321z
M203 825c0 47 35 93 86 93c59 0 94 -17 94 -79c0 -54 -33 -92 -87 -92c-46 0 -93 27 -93 78zM252 823c0 -39 87 -54 87 18v2c0 34 -87 50 -87 -20z" />
    <glyph glyph-name="AE" unicode="&#xc6;" horiz-adv-x="656" 
d="M333 39l-7 148c-54 -2 -107 -5 -160 -5h-10l-1 -1l-78 -180c0 -1 -5 -1 -6 -1h-2c-28 0 -68 0 -57 24l293 648c2 5 10 18 10 19c1 1 7 2 14 3c3 2 7 3 11 3h232c9 0 28 -5 28 -16c0 -6 -6 -49 -14 -50l-214 -2c0 -1 5 -15 5 -16v-10c1 -49 4 -166 4 -166l5 -15
c16 1 90 1 107 0c9 0 38 -4 38 -20c0 -1 -18 -49 -29 -49c-38 1 -77 0 -116 -5v-23c1 -30 11 -205 13 -235h204c26 0 33 -20 33 -43c0 -8 -12 -13 -15 -22c-84 -13 -171 -9 -255 -9c-15 0 -28 8 -33 23zM185 247h9c24 1 56 4 130 5c-5 108 -10 226 -12 287z" />
    <glyph glyph-name="Egrave" unicode="&#xc8;" horiz-adv-x="394" 
d="M71 35c-3 74 -19 453 -21 528v51v51c4 12 14 28 28 28h232c9 0 28 -5 28 -16c0 -6 -6 -49 -14 -50l-214 -2c0 -1 5 -15 5 -16v-10c1 -49 4 -166 4 -166l5 -15c16 1 90 1 107 0c9 0 38 -4 38 -20c0 -1 -18 -49 -29 -49c-38 1 -77 0 -116 -5v-12v-11c1 -30 11 -205 13 -235
h204c26 0 33 -20 33 -43c0 -8 -12 -13 -15 -22c-84 -13 -171 -9 -255 -9c-15 0 -28 8 -33 23zM243 770c-10 -9 -28 -24 -42 -29l-73 81l-5 12c-1 2 7 22 12 27c1 0 10 8 15 10c0 0 1 1 2 1c17 6 80 -72 89 -94c0 -1 1 -6 2 -8z" />
    <glyph glyph-name="Eacute" unicode="&#xc9;" horiz-adv-x="394" 
d="M71 35c-3 74 -19 453 -21 528v51v51c4 12 14 28 28 28h232c9 0 28 -5 28 -16c0 -6 -6 -49 -14 -50l-214 -2c0 -1 5 -15 5 -16v-10c1 -49 4 -166 4 -166l5 -15c16 1 90 1 107 0c9 0 38 -4 38 -20c0 -1 -18 -49 -29 -49c-38 1 -77 0 -116 -5v-12v-11c1 -30 11 -205 13 -235
h204c26 0 33 -20 33 -43c0 -8 -12 -13 -15 -22c-84 -13 -171 -9 -255 -9c-15 0 -28 8 -33 23zM122 770c1 2 2 7 2 8c9 22 72 100 89 94c1 0 2 -1 2 -1c5 -2 14 -10 15 -10c5 -5 13 -25 12 -27l-5 -12l-73 -81c-14 5 -32 20 -42 29z" />
    <glyph glyph-name="Ecircumflex" unicode="&#xca;" horiz-adv-x="394" 
d="M71 35c-3 74 -19 453 -21 528v51v51c4 12 14 28 28 28h232c9 0 28 -5 28 -16c0 -6 -6 -49 -14 -50l-214 -2c0 -1 5 -15 5 -16v-10c1 -49 4 -166 4 -166l5 -15c16 1 90 1 107 0c9 0 38 -4 38 -20c0 -1 -18 -49 -29 -49c-38 1 -77 0 -116 -5v-12v-11c1 -30 11 -205 13 -235
h204c26 0 33 -20 33 -43c0 -8 -12 -13 -15 -22c-84 -13 -171 -9 -255 -9c-15 0 -28 8 -33 23zM85 763c-1 3 2 11 3 12c7 12 43 63 52 74c9 12 26 30 45 30c29 0 109 -82 109 -109c0 -11 -28 -25 -34 -28h-1c-3 -1 -8 -5 -8 -5c-21 8 -39 65 -60 65c-17 0 -35 -56 -68 -69
c-6 3 -26 19 -30 22c-3 1 -8 7 -8 8z" />
    <glyph glyph-name="Edieresis" unicode="&#xcb;" horiz-adv-x="394" 
d="M71 35c-3 74 -19 453 -21 528v51v51c4 12 14 28 28 28h232c9 0 28 -5 28 -16c0 -6 -6 -49 -14 -50l-214 -2c0 -1 5 -15 5 -16v-10c1 -49 4 -166 4 -166l5 -15c16 1 90 1 107 0c9 0 38 -4 38 -20c0 -1 -18 -49 -29 -49c-38 1 -77 0 -116 -5v-12v-11c1 -30 11 -205 13 -235
h204c26 0 33 -20 33 -43c0 -8 -12 -13 -15 -22c-84 -13 -171 -9 -255 -9c-15 0 -28 8 -33 23zM96 767c0 21 17 43 39 43c16 0 36 -17 38 -34c3 -26 -19 -42 -42 -42c-18 0 -35 16 -35 33zM219 776c6 21 19 39 42 39c20 0 32 -22 32 -39c0 -14 -9 -39 -28 -39
c-16 0 -50 14 -46 39z" />
    <glyph glyph-name="Igrave" unicode="&#xcc;" horiz-adv-x="169" 
d="M50 456c0 29 1 179 1 209c2 15 6 19 20 19c12 0 41 3 45 -10c1 -86 3 -541 3 -628v-13c0 -24 -28 -20 -45 -20c-4 0 -14 1 -15 1l-4 9c-1 2 -4 141 -5 200v233zM135 760c-10 -9 -28 -24 -42 -29l-73 81l-5 12c-1 2 7 22 12 27c1 0 10 8 15 10c0 0 1 1 2 1
c17 6 80 -72 89 -94c0 -1 1 -6 2 -8z" />
    <glyph glyph-name="Iacute" unicode="&#xcd;" horiz-adv-x="169" 
d="M50 456c0 29 1 179 1 209c2 15 6 19 20 19c12 0 41 3 45 -10c1 -86 3 -541 3 -628v-13c0 -24 -28 -20 -45 -20c-4 0 -14 1 -15 1l-4 9c-1 2 -4 141 -5 200v233zM14 760c1 2 2 7 2 8c9 22 72 100 89 94c1 0 2 -1 2 -1c5 -2 14 -10 15 -10c5 -5 13 -25 12 -27l-5 -12
l-73 -81c-14 5 -32 20 -42 29z" />
    <glyph glyph-name="Icircumflex" unicode="&#xce;" horiz-adv-x="169" 
d="M50 456c0 29 1 179 1 209c2 15 6 19 20 19c12 0 41 3 45 -10c1 -86 3 -541 3 -628v-13c0 -24 -28 -20 -45 -20c-4 0 -14 1 -15 1l-4 9c-1 2 -4 141 -5 200v233zM-23 753c-1 3 2 11 3 12c7 12 43 63 52 74c9 12 26 30 45 30c29 0 109 -82 109 -109c0 -11 -28 -25 -34 -28
h-1c-3 -1 -8 -5 -8 -5c-21 8 -39 65 -60 65c-17 0 -35 -56 -68 -69c-6 3 -26 19 -30 22c-3 1 -8 7 -8 8z" />
    <glyph glyph-name="Idieresis" unicode="&#xcf;" horiz-adv-x="169" 
d="M50 456c0 29 1 179 1 209c2 15 6 19 20 19c12 0 41 3 45 -10c1 -86 3 -541 3 -628v-13c0 -24 -28 -20 -45 -20c-4 0 -14 1 -15 1l-4 9c-1 2 -4 141 -5 200v233zM-12 757c0 21 17 43 39 43c16 0 36 -17 38 -34c3 -26 -19 -42 -42 -42c-18 0 -35 16 -35 33zM111 766
c6 21 19 39 42 39c20 0 32 -22 32 -39c0 -14 -9 -39 -28 -39c-16 0 -50 14 -46 39z" />
    <glyph glyph-name="Ograve" unicode="&#xd2;" horiz-adv-x="574" 
d="M292 11c-350 -13 -332 661 -43 684c205 28 303 -194 294 -364c0 -165 -66 -320 -251 -320zM233 625c-87 -26 -189 -239 -109 -438c30 -75 90 -105 168 -105c150 0 180 140 180 264c0 138 -57 331 -239 279zM335 772c-10 -9 -28 -24 -42 -29l-73 81l-5 12c-1 2 7 22 12 27
c1 0 10 8 15 10c0 0 1 1 2 1c17 6 80 -72 89 -94c0 -1 1 -6 2 -8z" />
    <glyph glyph-name="Oacute" unicode="&#xd3;" horiz-adv-x="574" 
d="M292 11c-350 -13 -332 661 -43 684c205 28 303 -194 294 -364c0 -165 -66 -320 -251 -320zM233 625c-87 -26 -189 -239 -109 -438c30 -75 90 -105 168 -105c150 0 180 140 180 264c0 138 -57 331 -239 279zM214 772c1 2 2 7 2 8c9 22 72 100 89 94c1 0 2 -1 2 -1
c5 -2 14 -10 15 -10c5 -5 13 -25 12 -27l-5 -12l-73 -81c-14 5 -32 20 -42 29z" />
    <glyph glyph-name="Ocircumflex" unicode="&#xd4;" horiz-adv-x="574" 
d="M292 11c-350 -13 -332 661 -43 684c205 28 303 -194 294 -364c0 -165 -66 -320 -251 -320zM233 625c-87 -26 -189 -239 -109 -438c30 -75 90 -105 168 -105c150 0 180 140 180 264c0 138 -57 331 -239 279zM177 765c-1 3 2 11 3 12c7 12 43 63 52 74c9 12 26 30 45 30
c29 0 109 -82 109 -109c0 -11 -28 -25 -34 -28h-1c-3 -1 -8 -5 -8 -5c-21 8 -39 65 -60 65c-17 0 -35 -56 -68 -69c-6 3 -26 19 -30 22c-3 1 -8 7 -8 8z" />
    <glyph glyph-name="Otilde" unicode="&#xd5;" horiz-adv-x="574" 
d="M292 11c-350 -13 -332 661 -43 684c205 28 303 -194 294 -364c0 -165 -66 -320 -251 -320zM233 625c-87 -26 -189 -239 -109 -438c30 -75 90 -105 168 -105c150 0 180 140 180 264c0 138 -57 331 -239 279zM158 781c0 43 33 81 77 81c50 0 58 -53 92 -53
c21 0 14 53 35 53c16 0 38 -15 48 -22v-2c0 -44 -33 -93 -77 -93c-41 0 -66 20 -89 52h-7c-21 0 -19 -52 -60 -52c-14 0 -19 26 -19 36z" />
    <glyph glyph-name="Odieresis" unicode="&#xd6;" horiz-adv-x="574" 
d="M292 11c-350 -13 -332 661 -43 684c205 28 303 -194 294 -364c0 -165 -66 -320 -251 -320zM233 625c-87 -26 -189 -239 -109 -438c30 -75 90 -105 168 -105c150 0 180 140 180 264c0 138 -57 331 -239 279zM188 769c0 21 17 43 39 43c16 0 36 -17 38 -34
c3 -26 -19 -42 -42 -42c-18 0 -35 16 -35 33zM311 778c6 21 19 39 42 39c20 0 32 -22 32 -39c0 -14 -9 -39 -28 -39c-16 0 -50 14 -46 39z" />
    <glyph glyph-name="Oslash" unicode="&#xd8;" horiz-adv-x="574" 
d="M155 10v3l8 31c-210 134 -162 631 86 652c33 3 64 1 92 -6l3 9c4 12 7 15 17 15c8 0 41 -5 41 -16v-3l-8 -28c106 -63 149 -213 149 -336c0 -165 -66 -320 -251 -320c-27 0 -52 2 -75 9l-4 -16s-5 -16 -9 -16c-8 0 -49 12 -49 22zM472 346c0 91 -25 206 -95 259
l-141 -517c17 -4 36 -6 56 -6c150 0 180 140 180 264zM233 625c-87 -26 -189 -239 -109 -438c13 -34 33 -59 58 -76l143 518c-27 6 -57 6 -92 -4z" />
    <glyph glyph-name="Ugrave" unicode="&#xd9;" horiz-adv-x="499" 
d="M30 662c4 24 21 24 40 24h16c6 -5 12 -15 15 -18c-1 -50 -3 -302 -2 -352c1 -138 13 -240 171 -240c45 0 89 7 100 57c21 98 24 196 24 296c0 68 -1 166 -7 232c15 14 41 38 62 25c26 -16 19 -172 19 -205v-20c-1 -41 -8 -194 -9 -220c-6 -103 -14 -183 -113 -225
c-2 -1 -16 -5 -19 -5h-121c-54 0 -93 39 -126 76c-41 44 -46 156 -47 210c-1 52 -3 313 -3 365zM305 756c-10 -9 -28 -24 -42 -29l-73 81l-5 12c-1 2 7 22 12 27c1 0 10 8 15 10c0 0 1 1 2 1c17 6 80 -72 89 -94c0 -1 1 -6 2 -8z" />
    <glyph glyph-name="Uacute" unicode="&#xda;" horiz-adv-x="499" 
d="M30 662c4 24 21 24 40 24h16c6 -5 12 -15 15 -18c-1 -50 -3 -302 -2 -352c1 -138 13 -240 171 -240c45 0 89 7 100 57c21 98 24 196 24 296c0 68 -1 166 -7 232c15 14 41 38 62 25c26 -16 19 -172 19 -205v-20c-1 -41 -8 -194 -9 -220c-6 -103 -14 -183 -113 -225
c-2 -1 -16 -5 -19 -5h-121c-54 0 -93 39 -126 76c-41 44 -46 156 -47 210c-1 52 -3 313 -3 365zM184 756c1 2 2 7 2 8c9 22 72 100 89 94c1 0 2 -1 2 -1c5 -2 14 -10 15 -10c5 -5 13 -25 12 -27l-5 -12l-73 -81c-14 5 -32 20 -42 29z" />
    <glyph glyph-name="Ucircumflex" unicode="&#xdb;" horiz-adv-x="499" 
d="M30 662c4 24 21 24 40 24h16c6 -5 12 -15 15 -18c-1 -50 -3 -302 -2 -352c1 -138 13 -240 171 -240c45 0 89 7 100 57c21 98 24 196 24 296c0 68 -1 166 -7 232c15 14 41 38 62 25c26 -16 19 -172 19 -205v-20c-1 -41 -8 -194 -9 -220c-6 -103 -14 -183 -113 -225
c-2 -1 -16 -5 -19 -5h-121c-54 0 -93 39 -126 76c-41 44 -46 156 -47 210c-1 52 -3 313 -3 365zM147 749c-1 3 2 11 3 12c7 12 43 63 52 74c9 12 26 30 45 30c29 0 109 -82 109 -109c0 -11 -28 -25 -34 -28h-1c-3 -1 -8 -5 -8 -5c-21 8 -39 65 -60 65c-17 0 -35 -56 -68 -69
c-6 3 -26 19 -30 22c-3 1 -8 7 -8 8z" />
    <glyph glyph-name="Udieresis" unicode="&#xdc;" horiz-adv-x="499" 
d="M30 662c4 24 21 24 40 24h16c6 -5 12 -15 15 -18c-1 -50 -3 -302 -2 -352c1 -138 13 -240 171 -240c45 0 89 7 100 57c21 98 24 196 24 296c0 68 -1 166 -7 232c15 14 41 38 62 25c26 -16 19 -172 19 -205v-20c-1 -41 -8 -194 -9 -220c-6 -103 -14 -183 -113 -225
c-2 -1 -16 -5 -19 -5h-121c-54 0 -93 39 -126 76c-41 44 -46 156 -47 210c-1 52 -3 313 -3 365zM158 753c0 21 17 43 39 43c16 0 36 -17 38 -34c3 -26 -19 -42 -42 -42c-18 0 -35 16 -35 33zM281 762c6 21 19 39 42 39c20 0 32 -22 32 -39c0 -14 -9 -39 -28 -39
c-16 0 -50 14 -46 39z" />
    <glyph glyph-name="agrave" unicode="&#xe0;" horiz-adv-x="584" 
d="M455 173l-5 10c0 1 -49 4 -70 5h-21c-68 0 -137 -3 -205 -15c-4 -8 -31 -77 -35 -86c-3 -7 -23 -47 -29 -57c-3 -7 -12 -24 -23 -24c-14 0 -47 12 -47 29c0 8 1 10 5 18v1c213 458 254 629 289 629c26 0 45 -44 52 -62c80 -221 114 -303 193 -546c5 -15 5 -17 5 -30
c0 -18 -49 -23 -51 -23c-4 0 -9 6 -9 6zM314 564l-5 -8c-1 -4 -83 -208 -118 -293c0 -2 -4 -12 -4 -14h9c4 1 34 5 38 5c29 1 168 5 198 5c-32 97 -88 239 -104 278zM369 768c-10 -9 -28 -24 -42 -29l-73 81l-5 12c-1 2 7 22 12 27c1 0 10 8 15 10c0 0 1 1 2 1
c17 6 80 -72 89 -94c0 -1 1 -6 2 -8z" />
    <glyph glyph-name="aacute" unicode="&#xe1;" horiz-adv-x="584" 
d="M455 173l-5 10c0 1 -49 4 -70 5h-21c-68 0 -137 -3 -205 -15c-4 -8 -31 -77 -35 -86c-3 -7 -23 -47 -29 -57c-3 -7 -12 -24 -23 -24c-14 0 -47 12 -47 29c0 8 1 10 5 18v1c213 458 254 629 289 629c26 0 45 -44 52 -62c80 -221 114 -303 193 -546c5 -15 5 -17 5 -30
c0 -18 -49 -23 -51 -23c-4 0 -9 6 -9 6zM314 564l-5 -8c-1 -4 -83 -208 -118 -293c0 -2 -4 -12 -4 -14h9c4 1 34 5 38 5c29 1 168 5 198 5c-32 97 -88 239 -104 278zM248 768c1 2 2 7 2 8c9 22 72 100 89 94c1 0 2 -1 2 -1c5 -2 14 -10 15 -10c5 -5 13 -25 12 -27l-5 -12
l-73 -81c-14 5 -32 20 -42 29z" />
    <glyph glyph-name="acircumflex" unicode="&#xe2;" horiz-adv-x="584" 
d="M455 173l-5 10c0 1 -49 4 -70 5h-21c-68 0 -137 -3 -205 -15c-4 -8 -31 -77 -35 -86c-3 -7 -23 -47 -29 -57c-3 -7 -12 -24 -23 -24c-14 0 -47 12 -47 29c0 8 1 10 5 18v1c213 458 254 629 289 629c26 0 45 -44 52 -62c80 -221 114 -303 193 -546c5 -15 5 -17 5 -30
c0 -18 -49 -23 -51 -23c-4 0 -9 6 -9 6zM314 564l-5 -8c-1 -4 -83 -208 -118 -293c0 -2 -4 -12 -4 -14h9c4 1 34 5 38 5c29 1 168 5 198 5c-32 97 -88 239 -104 278zM211 761c-1 3 2 11 3 12c7 12 43 63 52 74c9 12 26 30 45 30c29 0 109 -82 109 -109
c0 -11 -28 -25 -34 -28h-1c-3 -1 -8 -5 -8 -5c-21 8 -39 65 -60 65c-17 0 -35 -56 -68 -69c-6 3 -26 19 -30 22c-3 1 -8 7 -8 8z" />
    <glyph glyph-name="atilde" unicode="&#xe3;" horiz-adv-x="584" 
d="M455 173l-5 10c0 1 -49 4 -70 5h-21c-68 0 -137 -3 -205 -15c-4 -8 -31 -77 -35 -86c-3 -7 -23 -47 -29 -57c-3 -7 -12 -24 -23 -24c-14 0 -47 12 -47 29c0 8 1 10 5 18v1c213 458 254 629 289 629c26 0 45 -44 52 -62c80 -221 114 -303 193 -546c5 -15 5 -17 5 -30
c0 -18 -49 -23 -51 -23c-4 0 -9 6 -9 6zM314 564l-5 -8c-1 -4 -83 -208 -118 -293c0 -2 -4 -12 -4 -14h9c4 1 34 5 38 5c29 1 168 5 198 5c-32 97 -88 239 -104 278zM192 777c0 43 33 81 77 81c50 0 58 -53 92 -53c21 0 14 53 35 53c16 0 38 -15 48 -22v-2
c0 -44 -33 -93 -77 -93c-41 0 -66 20 -89 52h-7c-21 0 -19 -52 -60 -52c-14 0 -19 26 -19 36z" />
    <glyph glyph-name="adieresis" unicode="&#xe4;" horiz-adv-x="584" 
d="M455 173l-5 10c0 1 -49 4 -70 5h-21c-68 0 -137 -3 -205 -15c-4 -8 -31 -77 -35 -86c-3 -7 -23 -47 -29 -57c-3 -7 -12 -24 -23 -24c-14 0 -47 12 -47 29c0 8 1 10 5 18v1c213 458 254 629 289 629c26 0 45 -44 52 -62c80 -221 114 -303 193 -546c5 -15 5 -17 5 -30
c0 -18 -49 -23 -51 -23c-4 0 -9 6 -9 6zM314 564l-5 -8c-1 -4 -83 -208 -118 -293c0 -2 -4 -12 -4 -14h9c4 1 34 5 38 5c29 1 168 5 198 5c-32 97 -88 239 -104 278zM222 765c0 21 17 43 39 43c16 0 36 -17 38 -34c3 -26 -19 -42 -42 -42c-18 0 -35 16 -35 33zM345 774
c6 21 19 39 42 39c20 0 32 -22 32 -39c0 -14 -9 -39 -28 -39c-16 0 -50 14 -46 39z" />
    <glyph glyph-name="aring" unicode="&#xe5;" horiz-adv-x="584" 
d="M455 173l-5 10c0 1 -49 4 -70 5h-21c-68 0 -137 -3 -205 -15c-4 -8 -31 -77 -35 -86c-3 -7 -23 -47 -29 -57c-3 -7 -12 -24 -23 -24c-14 0 -47 12 -47 29c0 8 1 10 5 18v1c213 458 254 629 289 629c26 0 45 -44 52 -62c80 -221 114 -303 193 -546c5 -15 5 -17 5 -30
c0 -18 -49 -23 -51 -23c-4 0 -9 6 -9 6zM314 564l-5 -8c-1 -4 -83 -208 -118 -293c0 -2 -4 -12 -4 -14h9c4 1 34 5 38 5c29 1 168 5 198 5c-32 97 -88 239 -104 278zM223 823c0 47 35 93 86 93c59 0 94 -17 94 -79c0 -54 -33 -92 -87 -92c-46 0 -93 27 -93 78zM272 821
c0 -39 87 -54 87 18v2c0 34 -87 50 -87 -20z" />
    <glyph glyph-name="ae" unicode="&#xe6;" horiz-adv-x="724" 
d="M18 54c219 367 302 549 348 618c15 26 277 5 292 14c32 -2 33 -51 14 -65c-11 0 -60 -1 -70 -1c-57 0 -114 -1 -170 -1v-217h136c10 0 24 -32 24 -39c0 -8 -15 -26 -24 -27l-131 -9c0 -11 -1 -64 -1 -75c0 -58 1 -121 7 -179h7c71 0 141 9 211 9c14 0 27 1 41 -5
c0 -2 1 -12 1 -14c0 -13 4 -44 -10 -47c-39 -2 -216 -13 -254 -14c-2 0 -19 -1 -24 -1c-4 0 -20 1 -24 1c-14 4 -14 28 -14 37l-6 149h-2c-68 0 -137 -3 -207 -15c-5 -8 -41 -77 -46 -86l-37 -57c-4 -7 -15 -24 -26 -24c-14 0 -45 12 -42 29c1 8 2 10 7 18v1zM253 254
c16 0 70 2 118 3l-8 292c-18 -36 -111 -209 -152 -286c0 -2 -6 -12 -6 -14h9c4 1 35 5 39 5z" />
    <glyph glyph-name="egrave" unicode="&#xe8;" horiz-adv-x="413" 
d="M50 650c0 3 3 19 5 24c15 26 277 5 292 14c32 -2 33 -51 14 -65c-11 0 -60 -1 -70 -1c-57 0 -114 -1 -170 -1v-217h136c10 0 24 -32 24 -39c0 -8 -15 -26 -24 -27l-131 -9c0 -11 -1 -64 -1 -75c0 -58 1 -121 7 -179h7c71 0 141 9 211 9c14 0 27 1 41 -5c0 -2 1 -12 1 -14
c0 -13 4 -44 -10 -47c-39 -2 -216 -13 -254 -14c-2 0 -19 -1 -24 -1c-4 0 -20 1 -24 1c-14 4 -14 28 -14 37zM271 760c-10 -9 -28 -24 -42 -29l-73 81l-5 12c-1 2 7 22 12 27c1 0 10 8 15 10c0 0 1 1 2 1c17 6 80 -72 89 -94c0 -1 1 -6 2 -8z" />
    <glyph glyph-name="eacute" unicode="&#xe9;" horiz-adv-x="413" 
d="M50 650c0 3 3 19 5 24c15 26 277 5 292 14c32 -2 33 -51 14 -65c-11 0 -60 -1 -70 -1c-57 0 -114 -1 -170 -1v-217h136c10 0 24 -32 24 -39c0 -8 -15 -26 -24 -27l-131 -9c0 -11 -1 -64 -1 -75c0 -58 1 -121 7 -179h7c71 0 141 9 211 9c14 0 27 1 41 -5c0 -2 1 -12 1 -14
c0 -13 4 -44 -10 -47c-39 -2 -216 -13 -254 -14c-2 0 -19 -1 -24 -1c-4 0 -20 1 -24 1c-14 4 -14 28 -14 37zM150 760c1 2 2 7 2 8c9 22 72 100 89 94c1 0 2 -1 2 -1c5 -2 14 -10 15 -10c5 -5 13 -25 12 -27l-5 -12l-73 -81c-14 5 -32 20 -42 29z" />
    <glyph glyph-name="ecircumflex" unicode="&#xea;" horiz-adv-x="413" 
d="M50 650c0 3 3 19 5 24c15 26 277 5 292 14c32 -2 33 -51 14 -65c-11 0 -60 -1 -70 -1c-57 0 -114 -1 -170 -1v-217h136c10 0 24 -32 24 -39c0 -8 -15 -26 -24 -27l-131 -9c0 -11 -1 -64 -1 -75c0 -58 1 -121 7 -179h7c71 0 141 9 211 9c14 0 27 1 41 -5c0 -2 1 -12 1 -14
c0 -13 4 -44 -10 -47c-39 -2 -216 -13 -254 -14c-2 0 -19 -1 -24 -1c-4 0 -20 1 -24 1c-14 4 -14 28 -14 37zM113 753c-1 3 2 11 3 12c7 12 43 63 52 74c9 12 26 30 45 30c29 0 109 -82 109 -109c0 -11 -28 -25 -34 -28h-1c-3 -1 -8 -5 -8 -5c-21 8 -39 65 -60 65
c-17 0 -35 -56 -68 -69c-6 3 -26 19 -30 22c-3 1 -8 7 -8 8z" />
    <glyph glyph-name="edieresis" unicode="&#xeb;" horiz-adv-x="413" 
d="M50 650c0 3 3 19 5 24c15 26 277 5 292 14c32 -2 33 -51 14 -65c-11 0 -60 -1 -70 -1c-57 0 -114 -1 -170 -1v-217h136c10 0 24 -32 24 -39c0 -8 -15 -26 -24 -27l-131 -9c0 -11 -1 -64 -1 -75c0 -58 1 -121 7 -179h7c71 0 141 9 211 9c14 0 27 1 41 -5c0 -2 1 -12 1 -14
c0 -13 4 -44 -10 -47c-39 -2 -216 -13 -254 -14c-2 0 -19 -1 -24 -1c-4 0 -20 1 -24 1c-14 4 -14 28 -14 37zM124 757c0 21 17 43 39 43c16 0 36 -17 38 -34c3 -26 -19 -42 -42 -42c-18 0 -35 16 -35 33zM247 766c6 21 19 39 42 39c20 0 32 -22 32 -39c0 -14 -9 -39 -28 -39
c-16 0 -50 14 -46 39z" />
    <glyph glyph-name="igrave" unicode="&#xec;" horiz-adv-x="181" 
d="M50 656c0 17 0 35 20 35c12 0 42 3 46 -10l14 -524c0 -8 1 -67 1 -85c0 -15 -1 -53 -1 -56l-5 -4h-56c-4 92 -19 524 -19 617v27zM137 770c-10 -9 -28 -24 -42 -29l-73 81l-5 12c-1 2 7 22 12 27c1 0 10 8 15 10c0 0 1 1 2 1c17 6 80 -72 89 -94c0 -1 1 -6 2 -8z" />
    <glyph glyph-name="iacute" unicode="&#xed;" horiz-adv-x="181" 
d="M50 656c0 17 0 35 20 35c12 0 42 3 46 -10l14 -524c0 -8 1 -67 1 -85c0 -15 -1 -53 -1 -56l-5 -4h-56c-4 92 -19 524 -19 617v27zM16 770c1 2 2 7 2 8c9 22 72 100 89 94c1 0 2 -1 2 -1c5 -2 14 -10 15 -10c5 -5 13 -25 12 -27l-5 -12l-73 -81c-14 5 -32 20 -42 29z" />
    <glyph glyph-name="icircumflex" unicode="&#xee;" horiz-adv-x="181" 
d="M50 656c0 17 0 35 20 35c12 0 42 3 46 -10l14 -524c0 -8 1 -67 1 -85c0 -15 -1 -53 -1 -56l-5 -4h-56c-4 92 -19 524 -19 617v27zM-21 763c-1 3 2 11 3 12c7 12 43 63 52 74c9 12 26 30 45 30c29 0 109 -82 109 -109c0 -11 -28 -25 -34 -28h-1c-3 -1 -8 -5 -8 -5
c-21 8 -39 65 -60 65c-17 0 -35 -56 -68 -69c-6 3 -26 19 -30 22c-3 1 -8 7 -8 8z" />
    <glyph glyph-name="idieresis" unicode="&#xef;" horiz-adv-x="181" 
d="M50 656c0 17 0 35 20 35c12 0 42 3 46 -10l14 -524c0 -8 1 -67 1 -85c0 -15 -1 -53 -1 -56l-5 -4h-56c-4 92 -19 524 -19 617v27zM-10 767c0 21 17 43 39 43c16 0 36 -17 38 -34c3 -26 -19 -42 -42 -42c-18 0 -35 16 -35 33zM113 776c6 21 19 39 42 39
c20 0 32 -22 32 -39c0 -14 -9 -39 -28 -39c-16 0 -50 14 -46 39z" />
    <glyph glyph-name="ograve" unicode="&#xf2;" horiz-adv-x="578" 
d="M30 350c0 109 25 248 128 315c108 71 260 8 266 4c98 -59 124 -165 124 -273c0 -133 -36 -363 -214 -363c-212 0 -304 108 -304 317zM96 349c0 -166 63 -245 230 -245c135 0 150 204 150 301c0 175 -74 229 -222 220c0 0 0 1 -1 1c-129 -21 -157 -166 -157 -277zM347 778
c-10 -9 -28 -24 -42 -29l-73 81l-5 12c-1 2 7 22 12 27c1 0 10 8 15 10c0 0 1 1 2 1c17 6 80 -72 89 -94c0 -1 1 -6 2 -8z" />
    <glyph glyph-name="oacute" unicode="&#xf3;" horiz-adv-x="578" 
d="M30 350c0 109 25 248 128 315c108 71 260 8 266 4c98 -59 124 -165 124 -273c0 -133 -36 -363 -214 -363c-212 0 -304 108 -304 317zM96 349c0 -166 63 -245 230 -245c135 0 150 204 150 301c0 175 -74 229 -222 220c0 0 0 1 -1 1c-129 -21 -157 -166 -157 -277zM226 778
c1 2 2 7 2 8c9 22 72 100 89 94c1 0 2 -1 2 -1c5 -2 14 -10 15 -10c5 -5 13 -25 12 -27l-5 -12l-73 -81c-14 5 -32 20 -42 29z" />
    <glyph glyph-name="ocircumflex" unicode="&#xf4;" horiz-adv-x="578" 
d="M30 350c0 109 25 248 128 315c108 71 260 8 266 4c98 -59 124 -165 124 -273c0 -133 -36 -363 -214 -363c-212 0 -304 108 -304 317zM96 349c0 -166 63 -245 230 -245c135 0 150 204 150 301c0 175 -74 229 -222 220c0 0 0 1 -1 1c-129 -21 -157 -166 -157 -277zM189 771
c-1 3 2 11 3 12c7 12 43 63 52 74c9 12 26 30 45 30c29 0 109 -82 109 -109c0 -11 -28 -25 -34 -28h-1c-3 -1 -8 -5 -8 -5c-21 8 -39 65 -60 65c-17 0 -35 -56 -68 -69c-6 3 -26 19 -30 22c-3 1 -8 7 -8 8z" />
    <glyph glyph-name="otilde" unicode="&#xf5;" horiz-adv-x="578" 
d="M30 350c0 109 25 248 128 315c108 71 260 8 266 4c98 -59 124 -165 124 -273c0 -133 -36 -363 -214 -363c-212 0 -304 108 -304 317zM96 349c0 -166 63 -245 230 -245c135 0 150 204 150 301c0 175 -74 229 -222 220c0 0 0 1 -1 1c-129 -21 -157 -166 -157 -277zM170 787
c0 43 33 81 77 81c50 0 58 -53 92 -53c21 0 14 53 35 53c16 0 38 -15 48 -22v-2c0 -44 -33 -93 -77 -93c-41 0 -66 20 -89 52h-7c-21 0 -19 -52 -60 -52c-14 0 -19 26 -19 36z" />
    <glyph glyph-name="odieresis" unicode="&#xf6;" horiz-adv-x="578" 
d="M30 350c0 109 25 248 128 315c108 71 260 8 266 4c98 -59 124 -165 124 -273c0 -133 -36 -363 -214 -363c-212 0 -304 108 -304 317zM96 349c0 -166 63 -245 230 -245c135 0 150 204 150 301c0 175 -74 229 -222 220c0 0 0 1 -1 1c-129 -21 -157 -166 -157 -277zM200 775
c0 21 17 43 39 43c16 0 36 -17 38 -34c3 -26 -19 -42 -42 -42c-18 0 -35 16 -35 33zM323 784c6 21 19 39 42 39c20 0 32 -22 32 -39c0 -14 -9 -39 -28 -39c-16 0 -50 14 -46 39z" />
    <glyph glyph-name="oslash" unicode="&#xf8;" horiz-adv-x="578" 
d="M165 50v3l4 12c-96 46 -139 141 -139 285c0 109 25 248 128 315c69 45 157 36 212 22c4 10 7 13 18 13c9 0 45 -5 45 -15c0 -1 -1 -3 -1 -3l-5 -15c95 -60 121 -164 121 -271c0 -133 -36 -363 -214 -363c-40 0 -76 4 -107 11c0 0 -5 -14 -9 -14c-9 0 -53 11 -53 20z
M96 349c0 -110 27 -182 94 -218l158 488c-27 6 -58 8 -94 6c0 0 0 1 -1 1c-129 -21 -157 -166 -157 -277zM476 405c0 99 -24 159 -72 191l-156 -485c23 -4 49 -7 78 -7c135 0 150 204 150 301z" />
    <glyph glyph-name="ugrave" unicode="&#xf9;" horiz-adv-x="500" 
d="M54 694c9 0 47 -5 47 -17v-3c0 -8 -4 -40 -5 -48l2 -350c1 -120 66 -206 155 -206c17 0 43 5 62 11c97 31 74 385 77 549c0 11 1 22 1 31c1 5 8 25 10 29c0 1 3 5 5 5c17 0 42 -10 56 -19c0 -10 1 -57 1 -67c0 -101 7 -261 -7 -362c-19 -132 -53 -247 -202 -247
c-122 0 -219 100 -221 242l-5 399v2c0 17 0 51 24 51zM301 760c-10 -9 -28 -24 -42 -29l-73 81l-5 12c-1 2 7 22 12 27c1 0 10 8 15 10c0 0 1 1 2 1c17 6 80 -72 89 -94c0 -1 1 -6 2 -8z" />
    <glyph glyph-name="uacute" unicode="&#xfa;" horiz-adv-x="500" 
d="M54 694c9 0 47 -5 47 -17v-3c0 -8 -4 -40 -5 -48l2 -350c1 -120 66 -206 155 -206c17 0 43 5 62 11c97 31 74 385 77 549c0 11 1 22 1 31c1 5 8 25 10 29c0 1 3 5 5 5c17 0 42 -10 56 -19c0 -10 1 -57 1 -67c0 -101 7 -261 -7 -362c-19 -132 -53 -247 -202 -247
c-122 0 -219 100 -221 242l-5 399v2c0 17 0 51 24 51zM180 760c1 2 2 7 2 8c9 22 72 100 89 94c1 0 2 -1 2 -1c5 -2 14 -10 15 -10c5 -5 13 -25 12 -27l-5 -12l-73 -81c-14 5 -32 20 -42 29z" />
    <glyph glyph-name="ucircumflex" unicode="&#xfb;" horiz-adv-x="500" 
d="M54 694c9 0 47 -5 47 -17v-3c0 -8 -4 -40 -5 -48l2 -350c1 -120 66 -206 155 -206c17 0 43 5 62 11c97 31 74 385 77 549c0 11 1 22 1 31c1 5 8 25 10 29c0 1 3 5 5 5c17 0 42 -10 56 -19c0 -10 1 -57 1 -67c0 -101 7 -261 -7 -362c-19 -132 -53 -247 -202 -247
c-122 0 -219 100 -221 242l-5 399v2c0 17 0 51 24 51zM143 753c-1 3 2 11 3 12c7 12 43 63 52 74c9 12 26 30 45 30c29 0 109 -82 109 -109c0 -11 -28 -25 -34 -28h-1c-3 -1 -8 -5 -8 -5c-21 8 -39 65 -60 65c-17 0 -35 -56 -68 -69c-6 3 -26 19 -30 22c-3 1 -8 7 -8 8z" />
    <glyph glyph-name="udieresis" unicode="&#xfc;" horiz-adv-x="500" 
d="M54 694c9 0 47 -5 47 -17v-3c0 -8 -4 -40 -5 -48l2 -350c1 -120 66 -206 155 -206c17 0 43 5 62 11c97 31 74 385 77 549c0 11 1 22 1 31c1 5 8 25 10 29c0 1 3 5 5 5c17 0 42 -10 56 -19c0 -10 1 -57 1 -67c0 -101 7 -261 -7 -362c-19 -132 -53 -247 -202 -247
c-122 0 -219 100 -221 242l-5 399v2c0 17 0 51 24 51zM154 757c0 21 17 43 39 43c16 0 36 -17 38 -34c3 -26 -19 -42 -42 -42c-18 0 -35 16 -35 33zM277 766c6 21 19 39 42 39c20 0 32 -22 32 -39c0 -14 -9 -39 -28 -39c-16 0 -50 14 -46 39z" />
    <glyph glyph-name="Euro" unicode="&#x20ac;" horiz-adv-x="528" 
d="M84 272c-26 9 -54 9 -54 40c0 1 24 31 28 32c4 0 22 -2 26 -2v59c0 1 -3 4 -4 5c-4 1 -23 8 -27 8v9c0 16 4 36 13 50c46 -6 45 55 70 99c46 80 110 119 208 119c56 0 105 1 146 -45c4 -5 4 -8 4 -14c0 -8 -4 -48 -18 -48c-31 0 -40 40 -67 40h-51
c-88 0 -136 -25 -180 -120c-2 -4 -11 -23 -13 -27v-6c19 0 106 2 125 2c10 0 33 -3 44 -9c0 -2 1 -14 1 -16c0 -10 3 -38 -9 -42c-59 1 -117 0 -175 -5v-62h94l18 -5v-11c0 -10 3 -42 -10 -46c-11 -1 -71 -4 -84 -5c-2 0 -10 1 -12 1c0 -109 80 -190 179 -190c6 0 32 1 38 1
c36 11 64 28 93 53h5c13 0 36 -30 36 -42c0 -46 -128 -79 -162 -79c-146 0 -244 94 -262 256z" />
    </font>
</defs>
</svg>
